<?xml version="1.0" standalone="no"?>
<!DOCTYPE svg PUBLIC "-//W3C//DTD SVG 20010904//EN"
 "http://www.w3.org/TR/2001/REC-SVG-20010904/DTD/svg10.dtd">
<svg version="1.0" xmlns="http://www.w3.org/2000/svg"
 width="533.000000pt" height="123.000000pt" viewBox="0 0 533.000000 123.000000"
 preserveAspectRatio="xMidYMid meet">
<metadata>
Created by potrace 1.16, written by Peter Selinger 2001-2019
</metadata>
<g transform="translate(0.000000,123.000000) scale(0.100000,-0.100000)"
fill="rgb(70, 84, 163)" stroke="none">
<path d="M470 1200 c-197 -53 -355 -200 -420 -390 -31 -89 -38 -242 -16 -330
54 -216 223 -391 432 -445 75 -19 223 -19 298 0 132 35 269 131 345 244 125
184 134 453 23 641 -135 227 -416 346 -662 280z m475 -490 l0 -295 -288 -5
c-289 -5 -289 -5 -308 -29 -24 -29 -24 -53 0 -82 l19 -24 286 -3 c274 -3 286
-4 286 -22 0 -12 -9 -22 -23 -25 -12 -3 -142 -5 -289 -3 -253 3 -268 4 -295
24 -15 11 -34 32 -40 45 -17 32 -18 601 -2 647 6 17 25 40 42 51 31 20 45 21
322 18 l290 -2 0 -295z m-5 -370 c0 -20 -7 -20 -275 -20 -268 0 -275 0 -275
20 0 20 7 20 275 20 268 0 275 0 275 -20z"/>
<path d="M356 939 l-26 -20 0 -238 0 -238 40 10 40 11 0 248 c0 269 0 269 -54
227z"/>
<path d="M460 710 l0 -250 220 0 220 0 0 250 0 250 -220 0 -220 0 0 -250z"/>
<path d="M2920 913 c-79 -12 -87 -23 -45 -63 l25 -23 0 -196 c0 -175 -3 -201
-21 -240 -11 -25 -16 -48 -11 -53 5 -5 42 -8 83 -6 68 3 74 5 71 23 -15 97
-14 115 2 121 25 10 63 -31 81 -87 9 -26 23 -50 31 -53 21 -8 139 -8 147 1 4
3 -19 32 -51 62 -32 31 -73 75 -90 99 -39 55 -33 70 54 136 41 30 62 52 56 58
-5 5 -38 8 -73 6 -64 -3 -64 -3 -69 -35 -6 -38 -65 -105 -89 -101 -14 3 -17
26 -22 165 -5 159 -13 195 -43 192 -6 -1 -22 -3 -36 -6z"/>
<path d="M3454 865 c-68 -35 -98 -94 -83 -163 10 -49 53 -88 151 -138 70 -36
90 -52 103 -81 21 -44 10 -75 -36 -98 -49 -26 -92 -12 -155 47 -29 27 -58 47
-63 43 -16 -9 -13 -87 4 -112 26 -37 172 -56 246 -32 79 27 129 109 109 181
-16 58 -44 83 -150 137 -55 29 -104 60 -110 71 -18 33 -11 67 16 89 46 36 85
27 158 -35 21 -18 43 -31 47 -28 16 10 10 101 -7 115 -25 21 -191 24 -230 4z"/>
<path d="M1415 861 c-3 -5 6 -27 20 -48 26 -37 26 -38 23 -224 -3 -178 -4
-189 -25 -211 -13 -14 -23 -29 -23 -35 0 -15 191 -28 267 -18 125 15 183 65
183 158 0 42 -5 54 -32 81 -18 18 -42 38 -53 44 -19 10 -19 12 12 42 74 73 47
181 -53 209 -48 13 -311 15 -319 2z m260 -46 c16 -4 31 -18 42 -40 14 -29 14
-41 4 -74 -14 -48 -37 -62 -100 -64 l-46 -2 -3 85 c-3 93 8 114 55 105 12 -3
34 -7 48 -10z m13 -236 c41 -14 62 -49 62 -104 0 -35 -6 -52 -24 -70 -28 -28
-84 -41 -123 -28 -28 10 -28 11 -31 103 -2 68 1 96 10 102 18 11 69 10 106 -3z"/>
<path d="M3869 768 c-11 -24 -32 -53 -46 -64 l-25 -22 22 -30 c19 -25 23 -48
29 -151 6 -107 10 -123 30 -145 13 -13 34 -27 47 -30 48 -12 144 29 129 55 -4
5 -21 9 -40 9 -52 0 -65 27 -65 131 0 48 3 95 6 104 4 9 24 23 46 32 46 18 45
32 -5 55 -28 14 -38 26 -47 58 -9 33 -15 40 -35 40 -19 0 -29 -10 -46 -42z"/>
<path d="M2045 696 c-37 -17 -80 -62 -94 -99 -20 -53 -14 -146 14 -193 43 -73
153 -106 238 -70 63 26 117 111 117 186 0 74 -47 151 -107 176 -41 18 -129 17
-168 0z m122 -48 c28 -32 43 -82 43 -147 0 -134 -107 -185 -160 -76 -35 72
-20 197 27 233 26 19 67 14 90 -10z"/>
<path d="M2505 696 c-38 -17 -80 -62 -94 -99 -19 -50 -13 -139 12 -187 53
-101 205 -122 291 -42 90 84 85 236 -9 308 -31 24 -49 29 -104 31 -41 2 -77
-2 -96 -11z m123 -49 c46 -49 57 -176 22 -235 -40 -65 -109 -59 -141 12 -33
73 -18 199 28 234 26 19 67 14 91 -11z"/>
<path d="M4234 695 c-87 -45 -124 -146 -94 -255 11 -41 61 -94 103 -109 45
-17 117 -13 163 9 125 61 142 262 28 340 -47 31 -152 39 -200 15z m117 -38
c32 -24 49 -74 49 -146 0 -82 -13 -117 -51 -137 -77 -40 -146 76 -119 201 17
80 73 118 121 82z"/>
<path d="M5054 691 c-77 -35 -117 -129 -95 -226 15 -66 42 -102 95 -126 68
-31 170 -20 217 24 31 29 11 39 -52 25 -65 -13 -102 -6 -135 28 -19 18 -24 33
-22 57 l3 32 77 6 c125 10 147 17 154 44 12 49 -25 114 -83 144 -33 17 -113
13 -159 -8z m131 -46 c27 -26 32 -64 13 -83 -7 -7 -39 -12 -74 -12 -71 0 -82
11 -60 65 25 58 80 72 121 30z"/>
<path d="M4603 693 c-19 -7 -16 -24 10 -51 20 -21 22 -34 22 -127 0 -93 -2
-106 -22 -127 -13 -14 -23 -32 -23 -41 0 -15 13 -17 95 -17 110 0 123 10 82
60 -32 38 -41 78 -32 147 11 87 34 102 122 77 25 -7 48 25 38 56 -10 31 -51
36 -101 12 -44 -22 -44 -22 -56 -2 -10 16 -23 20 -68 19 -30 0 -61 -3 -67 -6z"/>
</g>
</svg>
