<?xml version="1.0" standalone="no"?>
<!DOCTYPE svg PUBLIC "-//W3C//DTD SVG 20010904//EN"
 "http://www.w3.org/TR/2001/REC-SVG-20010904/DTD/svg10.dtd">
<svg version="1.0" xmlns="http://www.w3.org/2000/svg"
 width="200.000000pt" height="200.000000pt" viewBox="0 0 200.000000 200.000000"
 preserveAspectRatio="xMidYMid meet">
<metadata>
Created by potrace 1.16, written by Peter Selinger 2001-2019
</metadata>
<g transform="translate(0.000000,200.000000) scale(0.178571,-0.178571)"
fill="rgb(70, 84, 163)" stroke="none">
<path d="M450 1089 c-25 -5 -83 -27 -130 -50 -330 -163 -402 -597 -141 -858
229 -230 599 -209 799 44 79 101 112 198 112 332 -1 164 -43 268 -154 379
-132 132 -307 188 -486 153z m408 -438 c2 -179 -1 -258 -9 -267 -9 -11 -61
-14 -260 -14 -239 0 -250 -1 -270 -21 -15 -15 -19 -28 -14 -47 12 -50 20 -52
287 -52 219 0 249 -2 255 -16 3 -9 0 -20 -8 -25 -22 -14 -468 -10 -508 4 -19
7 -44 25 -55 40 -20 27 -21 42 -24 284 -2 277 3 320 45 353 25 20 36 20 292
18 l266 -3 3 -254z m-13 -341 c0 -13 -34 -15 -239 -18 -139 -1 -244 2 -249 7
-27 27 9 31 246 29 207 -3 242 -5 242 -18z"/>
<path d="M325 845 c-25 -24 -25 -24 -25 -234 l0 -209 35 11 35 10 0 224 c0
148 -3 223 -10 223 -6 0 -22 -11 -35 -25z"/>
<path d="M420 645 l0 -225 195 0 195 0 0 225 0 225 -195 0 -195 0 0 -225z"/>
</g>
</svg>
