<?xml version="1.0" standalone="no"?>
<!DOCTYPE svg PUBLIC "-//W3C//DTD SVG 20010904//EN"
 "http://www.w3.org/TR/2001/REC-SVG-20010904/DTD/svg10.dtd">
<svg version="1.0" xmlns="http://www.w3.org/2000/svg"
 width="323.000000pt" height="323.000000pt" viewBox="0 0 323.000000 323.000000"
 preserveAspectRatio="xMidYMid meet">
<metadata>
Created by potrace 1.16, written by Peter Selinger 2001-2019
</metadata>
<g transform="translate(0.000000,323.000000) scale(0.100000,-0.100000)"
fill="rgb(70, 84, 163)" stroke="none">
<path d="M1445 3209 c-459 -45 -889 -302 -1154 -689 -366 -534 -373 -1239 -18
-1778 241 -366 622 -619 1052 -698 140 -26 430 -26 570 0 788 146 1348 847
1311 1643 -42 922 -841 1613 -1761 1522z m285 -563 c26 -13 57 -40 75 -65 l30
-43 3 -379 3 -379 368 0 c366 0 368 0 412 -23 118 -62 147 -220 59 -320 -66
-75 -79 -77 -487 -77 l-353 0 0 -362 c0 -329 -2 -367 -19 -403 -32 -72 -113
-125 -191 -125 -82 0 -178 70 -199 145 -7 26 -11 167 -11 393 l0 352 -351 0
c-381 0 -403 3 -465 53 -103 86 -94 256 18 333 l41 29 379 3 378 3 0 362 0
363 25 51 c29 57 80 98 140 111 51 12 88 6 145 -22z"/>
</g>
</svg>
