<?xml version="1.0" standalone="no"?>
<!DOCTYPE svg PUBLIC "-//W3C//DTD SVG 20010904//EN"
 "http://www.w3.org/TR/2001/REC-SVG-20010904/DTD/svg10.dtd">
<svg version="1.0" xmlns="http://www.w3.org/2000/svg"
 width="512.000000pt" height="512.000000pt" viewBox="0 0 512.000000 512.000000"
 preserveAspectRatio="xMidYMid meet">
<metadata>
Created by potrace 1.16, written by Peter Selinger 2001-2019
</metadata>
<g transform="translate(0.000000,512.000000) scale(0.100000,-0.100000)"
fill="rgb(70, 84, 163)" stroke="none">
<path d="M2365 5114 c-351 -36 -631 -112 -909 -247 -271 -132 -463 -266 -675
-472 -414 -404 -661 -881 -752 -1455 -31 -190 -33 -550 -5 -730 73 -482 252
-894 547 -1259 99 -124 318 -336 441 -429 355 -266 746 -429 1198 -498 162
-25 540 -25 700 -1 306 48 541 121 795 249 245 123 433 258 634 453 230 225
377 426 517 710 126 256 204 513 246 810 16 119 17 514 0 630 -86 599 -331
1095 -743 1502 -399 394 -875 631 -1439 718 -101 15 -468 28 -555 19z m396
-494 c481 -48 912 -253 1260 -600 182 -182 315 -371 419 -599 321 -701 230
-1501 -242 -2124 -80 -105 -270 -295 -375 -375 -633 -479 -1449 -565 -2157
-227 -211 101 -392 231 -566 405 -240 239 -401 499 -505 815 -213 645 -98
1340 314 1890 145 195 379 405 591 532 175 105 435 208 625 248 199 42 436 55
636 35z"/>
<path d="M2333 4081 c-26 -21 -348 -340 -715 -707 -511 -512 -672 -680 -687
-714 -27 -59 -27 -141 0 -200 15 -35 179 -204 702 -728 375 -375 698 -694 719
-708 46 -32 84 -29 112 9 20 27 21 42 26 405 6 416 4 404 72 469 73 71 37 67
803 73 l690 5 40 26 c52 34 69 55 94 109 20 43 21 64 21 440 0 376 -1 397 -21
440 -25 56 -53 86 -104 113 -40 22 -48 22 -725 27 -632 5 -688 6 -725 23 -47
21 -88 58 -118 107 -21 34 -22 47 -27 410 -5 381 -8 408 -44 432 -26 18 -66 6
-113 -31z"/>
</g>
</svg>
