<?xml version="1.0" standalone="no"?>
<!DOCTYPE svg PUBLIC "-//W3C//DTD SVG 20010904//EN"
 "http://www.w3.org/TR/2001/REC-SVG-20010904/DTD/svg10.dtd">
<svg version="1.0" xmlns="http://www.w3.org/2000/svg"
 width="640.000000pt" height="640.000000pt" viewBox="0 0 640.000000 640.000000"
 preserveAspectRatio="xMidYMid meet">
<metadata>
Created by potrace 1.16, written by Peter Selinger 2001-2019
</metadata>
<g transform="translate(0.000000,640.000000) scale(0.100000,-0.100000)"
fill="rgb(70, 84, 163)" stroke="none">
<path d="M3009 6060 c-384 -30 -722 -122 -1064 -290 -271 -133 -444 -249 -665
-445 -255 -227 -470 -509 -634 -835 -214 -422 -309 -821 -309 -1295 0 -777
292 -1485 838 -2030 231 -232 465 -400 750 -540 393 -193 758 -285 1190 -302
657 -24 1312 189 1860 606 118 90 373 341 469 461 173 217 360 547 451 793
126 345 179 643 179 1012 -1 307 -30 518 -110 798 -316 1102 -1266 1910 -2409
2051 -155 19 -412 27 -546 16z m70 -1045 c523 -92 961 -471 1127 -974 55 -167
68 -252 68 -461 1 -214 -9 -280 -66 -460 -27 -86 -84 -211 -134 -297 l-19 -32
481 -483 c543 -546 521 -518 512 -662 -8 -118 -70 -212 -178 -268 -66 -34
-204 -33 -275 1 -39 19 -158 132 -522 494 l-471 469 -61 -35 c-119 -70 -275
-128 -442 -164 -117 -25 -427 -25 -552 0 -298 60 -545 193 -757 406 -214 216
-338 445 -401 742 -32 148 -32 429 0 573 54 252 155 462 310 648 242 289 585
475 960 518 100 11 314 4 420 -15z"/>
<path d="M2645 4633 c-144 -26 -295 -86 -422 -169 -75 -49 -238 -212 -287
-287 -223 -341 -246 -747 -63 -1102 270 -523 910 -730 1440 -464 329 165 554
497 586 863 37 432 -182 843 -560 1045 -208 112 -469 155 -694 114z"/>
</g>
</svg>
