<?xml version="1.0" standalone="no"?>
<!DOCTYPE svg PUBLIC "-//W3C//DTD SVG 20010904//EN"
 "http://www.w3.org/TR/2001/REC-SVG-20010904/DTD/svg10.dtd">
<svg version="1.0" xmlns="http://www.w3.org/2000/svg"
 width="47.000000pt" height="47.000000pt" viewBox="0 0 47.000000 47.000000"
 preserveAspectRatio="xMidYMid meet">
<metadata>
Created by potrace 1.16, written by Peter Selinger 2001-2019
</metadata>
<g transform="translate(0.000000,47.000000) scale(0.100000,-0.100000)"
fill="rgb(107,122,204)" stroke="none">
<path d="M143 381 c-98 -62 -74 -211 38 -241 29 -8 48 -7 81 4 l43 15 42 -41
c56 -54 69 -41 15 15 l-41 42 15 43 c18 55 6 107 -35 146 -40 39 -112 46 -158
17z m150 -41 c40 -45 38 -107 -4 -149 -84 -84 -224 10 -178 120 30 74 128 89
182 29z"/>
</g>
</svg>
